<?xml version="1.0" encoding="utf-8"?>
<!-- Generator: Adobe Illustrator 24.3.0, SVG Export Plug-In . SVG Version: 6.00 Build 0)  -->
<svg version="1.1" id="Layer_1" xmlns="http://www.w3.org/2000/svg" xmlns:xlink="http://www.w3.org/1999/xlink" x="0px" y="0px"
	 viewBox="0 0 500 500" style="enable-background:new 0 0 500 500;" xml:space="preserve">
<style type="text/css">
	.st0{fill:#00AEEF;}
</style>
<g>
	<path class="st0" d="M320.4,190.44l-54.01-31.18c-10.14-5.85-22.63-5.85-32.77,0l-54.01,31.18c-10.14,5.85-16.38,16.67-16.38,28.38
		v62.37c0,11.71,6.25,22.52,16.38,28.38l54.01,31.18c10.14,5.85,22.63,5.85,32.77,0l54.01-31.18c10.14-5.85,16.38-16.67,16.38-28.38
		v-62.37C336.78,207.11,330.54,196.29,320.4,190.44z M269.27,192.51h21.69l-5.15,26.51h-21.68L269.27,192.51z M235.86,192.51h21.83
		l-5.14,26.51h-21.83L235.86,192.51z M233.07,278.82l-7.61,28.67h-22.48l7.61-28.67h-25.15l6.16-20.76h46.98L233.07,278.82z
		 M307.8,247.68h-33.1l-2.75,10.38l-5.51,20.76l-7.61,28.67h-21.75l7.61-28.67l5.51-20.76l2.75-10.38h-58.26l6.75-22.73h113.11
		L307.8,247.68z"/>
</g>
</svg>
